<?xml version="1.0" encoding="utf-8"?>
<!-- Generator: Adobe Illustrator 19.0.0, SVG Export Plug-In . SVG Version: 6.00 Build 0)  -->
<svg version="1.1" xmlns="http://www.w3.org/2000/svg" xmlns:xlink="http://www.w3.org/1999/xlink" x="0px" y="0px" width="1400px"
	 height="1400px" viewBox="0 0 1400 1400" enable-background="new 0 0 1400 1400" xml:space="preserve">
<g id="Background">
	<linearGradient id="XMLID_4_" gradientUnits="userSpaceOnUse" x1="662.9232" y1="712.122" x2="1510.9232" y2="450.122">
		<stop  offset="5.102040e-002" style="stop-color:#00364F"/>
		<stop  offset="1" style="stop-color:#A06475"/>
	</linearGradient>
	<rect id="XMLID_3_" x="0" fill="url(#XMLID_4_)" width="1400" height="1401.3"/>
</g>
<g id="Object">
	<g id="XMLID_1_">
		<g>
			<defs>
				<rect id="SVGID_1_" x="0" width="1400" height="1401.3"/>
			</defs>
			<clipPath id="SVGID_2_">
				<use xlink:href="#SVGID_1_"  overflow="visible"/>
			</clipPath>
			<g clip-path="url(#SVGID_2_)">
				<path fill="#00364F" d="M496.3,498l-15.9,1.9l-5.5,0.6l-1.9,63.8c7.4-4.7,14.6-9.5,21.7-14.6L496.3,498z"/>
				<linearGradient id="SVGID_3_" gradientUnits="userSpaceOnUse" x1="479.586" y1="520.7539" x2="486.586" y2="603.2539">
					<stop  offset="5.102040e-002" style="stop-color:#00364F"/>
					<stop  offset="0.2219" style="stop-color:#2E435A"/>
					<stop  offset="1" style="stop-color:#FF7F8C"/>
				</linearGradient>
				<path fill="url(#SVGID_3_)" d="M472.9,564.3l-0.3,11.3l-0.2,7.2l5.2,5.9l16-4.2l0.4-12.4l0.7-22.4
					C487.5,554.8,480.3,559.7,472.9,564.3z"/>
				<polygon fill="#00364F" points="477.5,588.8 472.3,582.8 472.5,575.6 474.8,500.5 480.4,499.9 				"/>
				<linearGradient id="SVGID_4_" gradientUnits="userSpaceOnUse" x1="436.9492" y1="599.7919" x2="558.4492" y2="568.2919">
					<stop  offset="5.102040e-002" style="stop-color:#00364F"/>
					<stop  offset="0.2219" style="stop-color:#2E435A"/>
					<stop  offset="1" style="stop-color:#FF7F8C"/>
				</linearGradient>
				<path fill="url(#SVGID_4_)" d="M513.7,589.8c-0.1,0.6-0.3,1.1-0.7,1.5c-4.3,4.2-27,13.2-33.4,10.6c-5.8-2.3-19.6-14-21.1-19.2
					c-0.2-0.6-0.2-1.2,0-1.6c1.9-3.8,14.1-5.5,14.1-5.5l-0.2,7.2l5.2,5.9l16-4.2l0.4-12.4C500.5,572.9,513.1,584.2,513.7,589.8z"/>
				<path fill="#00364F" d="M513.7,589.8c-0.3,12.6-6.2,228.1-10.3,231.4c-3.4,2.7-18.4,8.4-29.7,8.6c-2.9,0.1-5.5-0.2-7.7-1
					c-10.6-3.8-17-24.6-17-24.6l9.4-221.4c1.4,5.2,15.3,16.9,21.1,19.2c0.2,0.1,0.4,0.2,0.7,0.2c7.3,1.8,28.6-6.7,32.8-10.8
					C513.4,590.9,513.6,590.4,513.7,589.8z"/>
				<linearGradient id="SVGID_5_" gradientUnits="userSpaceOnUse" x1="472.4143" y1="709.8" x2="513.6943" y2="709.8">
					<stop  offset="5.102040e-002" style="stop-color:#00364F"/>
					<stop  offset="0.2219" style="stop-color:#2E435A"/>
					<stop  offset="1" style="stop-color:#FF7F8C"/>
				</linearGradient>
				<path fill="url(#SVGID_5_)" d="M513.7,589.8c-0.3,12.6-6.2,228.1-10.3,231.4c-3.4,2.7-18.4,8.4-29.7,8.6
					c-0.9-2.7-1.3-4.5-1.3-4.5l7.8-223.1c7.3,1.8,28.6-6.7,32.8-10.8C513.4,590.9,513.6,590.4,513.7,589.8z"/>
				<path fill="#FFFFFF" d="M670.8,493.3l2.3-162.5l-239.3,35.1c0,0-1.6,173.9-2.3,175.6L670.8,493.3z M441.9,373.3l223.9-34.6
					l-2.2,146.4l-222.3,44.7L441.9,373.3z"/>
				
					<linearGradient id="SVGID_6_" gradientUnits="userSpaceOnUse" x1="382.1838" y1="587.7328" x2="605.7824" y2="330.8323" gradientTransform="matrix(1 0 -6.144260e-002 1.001 59.4771 -1.001)">
					<stop  offset="5.102040e-002" style="stop-color:#00364F"/>
					<stop  offset="0.2219" style="stop-color:#2E435A"/>
					<stop  offset="1" style="stop-color:#FF7F8C"/>
				</linearGradient>
				<polygon fill="url(#SVGID_6_)" points="663.6,485.1 441.3,529.9 441.9,373.3 665.8,338.7 				"/>
				<path fill="#FFFFFF" d="M610.5,405.9l-114.3,18l0.5,84.8l110.8-22.1L610.5,405.9z M506.6,498l1.1-65.6l92.5-15.1l-2.4,62
					L506.6,498z"/>
				
					<linearGradient id="SVGID_7_" gradientUnits="userSpaceOnUse" x1="522.4586" y1="536.8729" x2="530.5221" y2="495.2824" gradientTransform="matrix(1 0 -6.144260e-002 1.001 59.4771 -1.001)">
					<stop  offset="5.102040e-002" style="stop-color:#00364F"/>
					<stop  offset="0.2219" style="stop-color:#2E435A"/>
					<stop  offset="1" style="stop-color:#FF7F8C"/>
				</linearGradient>
				<polygon fill="url(#SVGID_7_)" points="534.3,502.4 542.5,506.5 582.1,498 573.3,494.5 				"/>
				
					<linearGradient id="SVGID_8_" gradientUnits="userSpaceOnUse" x1="518.3068" y1="534.4634" x2="550.3485" y2="476.5337" gradientTransform="matrix(1 0 -6.144260e-002 1.001 59.4771 -1.001)">
					<stop  offset="5.102040e-002" style="stop-color:#00364F"/>
					<stop  offset="0.2219" style="stop-color:#2E435A"/>
					<stop  offset="1" style="stop-color:#FF7F8C"/>
				</linearGradient>
				<polygon fill="url(#SVGID_8_)" points="542.5,506.5 582.1,498 581.6,505.8 542,514.3 				"/>
				<path fill="#00364F" d="M424.1,536.4l7.5,5c0,0,3.7-174.7,2.3-175.6c-1.4-0.8-7.5-5-7.5-5L424.1,536.4z"/>
				
					<linearGradient id="SVGID_9_" gradientUnits="userSpaceOnUse" x1="361.8969" y1="346.4508" x2="606.8056" y2="346.4508" gradientTransform="matrix(1 0 -6.144260e-002 1.001 59.4771 -1.001)">
					<stop  offset="5.102040e-002" style="stop-color:#00364F"/>
					<stop  offset="0.2219" style="stop-color:#2E435A"/>
					<stop  offset="1" style="stop-color:#FF7F8C"/>
				</linearGradient>
				<polygon fill="url(#SVGID_9_)" points="426.4,360.8 433.9,365.9 673.1,330.8 665.6,325.7 				"/>
				
					<linearGradient id="SVGID_10_" gradientUnits="userSpaceOnUse" x1="513.876" y1="523.0379" x2="575.6252" y2="487.3889" gradientTransform="matrix(1 0 -6.144260e-002 1.001 59.4771 -1.001)">
					<stop  offset="5.102040e-002" style="stop-color:#00364F"/>
					<stop  offset="0.2219" style="stop-color:#2E435A"/>
					<stop  offset="1" style="stop-color:#FF7F8C"/>
				</linearGradient>
				<polygon fill="url(#SVGID_10_)" points="572.1,513.2 581.6,505.8 542,514.3 533.2,521 				"/>
				
					<linearGradient id="SVGID_11_" gradientUnits="userSpaceOnUse" x1="509.8656" y1="527.3623" x2="510.0778" y2="480.8912" gradientTransform="matrix(1 0 -6.144260e-002 1.001 59.4771 -1.001)">
					<stop  offset="5.102040e-002" style="stop-color:#00364F"/>
					<stop  offset="0.2219" style="stop-color:#2E435A"/>
					<stop  offset="1" style="stop-color:#FF7F8C"/>
				</linearGradient>
				<polygon fill="url(#SVGID_11_)" points="542.5,506.5 542,514.3 533.2,521 534.3,502.4 				"/>
				<g>
					<g>
						<g>
							
								<linearGradient id="SVGID_12_" gradientUnits="userSpaceOnUse" x1="525.5577" y1="614.9236" x2="525.5577" y2="423.6227" gradientTransform="matrix(1 0 -6.144260e-002 1.001 59.4771 -1.001)">
								<stop  offset="0" style="stop-color:#2E435A"/>
								<stop  offset="1" style="stop-color:#FF7F8C"/>
							</linearGradient>
							<path fill="url(#SVGID_12_)" d="M549.8,601.9c0-0.3-0.9-25.8-0.3-41.1c0.2-4.5,0.5-9.7,0.7-15c0.8-14.2,1.9-35.7,0-37.1
								l0.6-1.6c2.9,0.8,2.5,12.4,1.1,38.7c-0.3,5.3-0.6,10.4-0.7,15c-0.6,15.2,0.3,40.7,0.3,41L549.8,601.9z"/>
						</g>
						<g>
							
								<linearGradient id="SVGID_13_" gradientUnits="userSpaceOnUse" x1="520.4401" y1="614.9236" x2="520.4401" y2="423.6227" gradientTransform="matrix(1 0 -6.144260e-002 1.001 59.4771 -1.001)">
								<stop  offset="0" style="stop-color:#2E435A"/>
								<stop  offset="1" style="stop-color:#FF7F8C"/>
							</linearGradient>
							<path fill="url(#SVGID_13_)" d="M555.6,605.2l-1.7,0c0-0.2,1.5-24.6-1.8-38.5c-4.7-19.8-16.6-51.9-16.7-52.3l1.6-0.7
								c0.1,0.3,12,32.6,16.8,52.4C557.1,580.3,555.6,605,555.6,605.2z"/>
						</g>
						<g>
							
								<linearGradient id="SVGID_14_" gradientUnits="userSpaceOnUse" x1="577.9313" y1="614.9236" x2="577.9313" y2="423.6227" gradientTransform="matrix(1 0 -6.144260e-002 1.001 59.4771 -1.001)">
								<stop  offset="0" style="stop-color:#2E435A"/>
								<stop  offset="1" style="stop-color:#FF7F8C"/>
							</linearGradient>
							<path fill="url(#SVGID_14_)" d="M583.5,590.8l-1.7-0.2c3.5-18.6,23.7-58.7,41.9-64.8l0.4,1.6
								C606.9,533.2,586.9,573.1,583.5,590.8z"/>
						</g>
						<g>
							
								<linearGradient id="SVGID_15_" gradientUnits="userSpaceOnUse" x1="570.5035" y1="614.9236" x2="570.5035" y2="423.6227" gradientTransform="matrix(1 0 -6.144260e-002 1.001 59.4771 -1.001)">
								<stop  offset="0" style="stop-color:#2E435A"/>
								<stop  offset="1" style="stop-color:#FF7F8C"/>
							</linearGradient>
							<path fill="url(#SVGID_15_)" d="M575.3,589.9l-1.7-0.2c5.7-30,29.6-67.5,44-74.6l0.7,1.5
								C604.6,523.4,580.8,560.9,575.3,589.9z"/>
						</g>
						<g>
							
								<linearGradient id="SVGID_16_" gradientUnits="userSpaceOnUse" x1="559.9534" y1="614.9236" x2="559.9534" y2="423.6227" gradientTransform="matrix(1 0 -6.144260e-002 1.001 59.4771 -1.001)">
								<stop  offset="0" style="stop-color:#2E435A"/>
								<stop  offset="1" style="stop-color:#FF7F8C"/>
							</linearGradient>
							<path fill="url(#SVGID_16_)" d="M567.8,590.5l-1.6-0.4c0.9-3.1,21.9-75.7,38.3-83.2l0.6,1.5
								C589.4,515.6,568,589.8,567.8,590.5z"/>
						</g>
						<g>
							
								<linearGradient id="SVGID_17_" gradientUnits="userSpaceOnUse" x1="548.8214" y1="614.9236" x2="548.8214" y2="423.6227" gradientTransform="matrix(1 0 -6.144260e-002 1.001 59.4771 -1.001)">
								<stop  offset="0" style="stop-color:#2E435A"/>
								<stop  offset="1" style="stop-color:#FF7F8C"/>
							</linearGradient>
							<path fill="url(#SVGID_17_)" d="M561.5,592.1l-1.7-0.2c0.6-3.1,15.1-77.2,28.5-89.3l1.1,1.2
								C576.5,515.5,561.6,591.4,561.5,592.1z"/>
						</g>
						<g>
							
								<linearGradient id="SVGID_18_" gradientUnits="userSpaceOnUse" x1="537.1409" y1="614.9236" x2="537.1409" y2="423.6227" gradientTransform="matrix(1 0 -6.144260e-002 1.001 59.4771 -1.001)">
								<stop  offset="0" style="stop-color:#2E435A"/>
								<stop  offset="1" style="stop-color:#FF7F8C"/>
							</linearGradient>
							<path fill="url(#SVGID_18_)" d="M554.1,595.1c0.9-17.4,8-72,15.9-92.9l1.6,0.5c-7.9,20.8-15,75-15.8,92.4L554.1,595.1z"/>
						</g>
						<g>
							
								<linearGradient id="SVGID_19_" gradientUnits="userSpaceOnUse" x1="578.9508" y1="614.9236" x2="578.9508" y2="423.6227" gradientTransform="matrix(1 0 -6.144260e-002 1.001 59.4771 -1.001)">
								<stop  offset="0" style="stop-color:#2E435A"/>
								<stop  offset="1" style="stop-color:#FF7F8C"/>
							</linearGradient>
							<path fill="url(#SVGID_19_)" d="M590.1,593.1l-1.7-0.1c2.7-18.1,22.8-49.9,29.5-53.9l0.8,1.4
								C612.5,544.2,592.7,575.8,590.1,593.1z"/>
						</g>
						<g>
							
								<linearGradient id="SVGID_20_" gradientUnits="userSpaceOnUse" x1="571.6235" y1="614.9236" x2="571.6235" y2="423.6227" gradientTransform="matrix(1 0 -6.144260e-002 1.001 59.4771 -1.001)">
								<stop  offset="0" style="stop-color:#2E435A"/>
								<stop  offset="1" style="stop-color:#FF7F8C"/>
							</linearGradient>
							<path fill="url(#SVGID_20_)" d="M597.1,605.1l-1.7-0.2c0-0.2,3.5-17.4,2.2-36.1c-0.3-3.7-3.4-13.2-4.9-17.3l1.6-0.7
								c1.2,3.3,4.7,13.6,5,17.7C600.7,587.5,597.2,604.9,597.1,605.1z"/>
						</g>
						<g>
							
								<linearGradient id="SVGID_21_" gradientUnits="userSpaceOnUse" x1="531.9327" y1="614.9236" x2="531.9327" y2="423.6227" gradientTransform="matrix(1 0 -6.144260e-002 1.001 59.4771 -1.001)">
								<stop  offset="0" style="stop-color:#2E435A"/>
								<stop  offset="1" style="stop-color:#FF7F8C"/>
							</linearGradient>
							<path fill="url(#SVGID_21_)" d="M551.7,600.4l-1.7,0c0-0.2,2-22.4,5.5-35.8c1.1-4.1,2.8-8.7,5-13.8l1.6,0.6
								c-2.2,5-3.8,9.5-4.9,13.6C553.6,578.2,551.7,600.2,551.7,600.4z"/>
						</g>
						<g>
							
								<linearGradient id="SVGID_22_" gradientUnits="userSpaceOnUse" x1="541.528" y1="614.9236" x2="541.528" y2="423.6227" gradientTransform="matrix(1 0 -6.144260e-002 1.001 59.4771 -1.001)">
								<stop  offset="0" style="stop-color:#2E435A"/>
								<stop  offset="1" style="stop-color:#FF7F8C"/>
							</linearGradient>
							<path fill="url(#SVGID_22_)" d="M553.6,606.6l-1.6-0.5c0.1-0.2,7.5-22,14.3-35.6c2.6-5.3,6.3-11.4,11.1-18.2l1.4,0.9
								c-4.7,6.7-8.4,12.8-11,18C561.1,584.7,553.7,606.4,553.6,606.6z"/>
						</g>
						<g>
							
								<linearGradient id="SVGID_23_" gradientUnits="userSpaceOnUse" x1="521.9371" y1="614.9236" x2="521.9371" y2="423.6227" gradientTransform="matrix(1 0 -6.144260e-002 1.001 59.4771 -1.001)">
								<stop  offset="0" style="stop-color:#2E435A"/>
								<stop  offset="1" style="stop-color:#FF7F8C"/>
							</linearGradient>
							<path fill="url(#SVGID_23_)" d="M559,611.9c0-0.2-2.1-23.2-6.5-36.3c-6.3-18.6-20.7-42.5-20.8-42.7l1.5-0.9
								c0.1,0.2,14.6,24.3,20.9,43c4.5,13.2,6.6,36.4,6.6,36.6L559,611.9z"/>
						</g>
						<g>
							
								<linearGradient id="SVGID_24_" gradientUnits="userSpaceOnUse" x1="552.7603" y1="614.9236" x2="552.7603" y2="423.6227" gradientTransform="matrix(1 0 -6.144260e-002 1.001 59.4771 -1.001)">
								<stop  offset="0" style="stop-color:#2E435A"/>
								<stop  offset="1" style="stop-color:#FF7F8C"/>
							</linearGradient>
							<path fill="url(#SVGID_24_)" d="M560.3,609.9l-1.5-0.7c0.1-0.2,9.7-19.3,17.3-32.8c3.3-5.9,11.9-19.4,16.9-25.8l1.3,1
								c-5,6.4-13.4,19.7-16.7,25.6C570,590.6,560.4,609.7,560.3,609.9z"/>
						</g>
						<g>
							
								<linearGradient id="SVGID_25_" gradientUnits="userSpaceOnUse" x1="533.3443" y1="614.9236" x2="533.3443" y2="423.6227" gradientTransform="matrix(1 0 -6.144260e-002 1.001 59.4771 -1.001)">
								<stop  offset="0" style="stop-color:#2E435A"/>
								<stop  offset="1" style="stop-color:#FF7F8C"/>
							</linearGradient>
							<path fill="url(#SVGID_25_)" d="M569.6,614.1c0-0.2-3.1-23.2-9-36.2c-4.4-9.8-11.9-24-17.5-33l1.5-0.9
								c5.5,9.1,13.1,23.4,17.6,33.2c6,13.3,9.1,36.5,9.2,36.7L569.6,614.1z"/>
						</g>
						<g>
							
								<linearGradient id="SVGID_26_" gradientUnits="userSpaceOnUse" x1="565.1116" y1="614.9236" x2="565.1116" y2="423.6227" gradientTransform="matrix(1 0 -6.144260e-002 1.001 59.4771 -1.001)">
								<stop  offset="0" style="stop-color:#2E435A"/>
								<stop  offset="1" style="stop-color:#FF7F8C"/>
							</linearGradient>
							<path fill="url(#SVGID_26_)" d="M570.9,612.1l-1.5-0.7c0.1-0.2,10.3-19.1,17.8-32.2c1.2-2,2.4-4.3,3.8-6.7
								c4.9-8.9,10.5-19,16.3-25.6l1.3,1.1c-5.6,6.4-11.1,16.4-16,25.3c-1.3,2.4-2.6,4.7-3.8,6.7C581.1,593.1,571,611.9,570.9,612.1
								z"/>
						</g>
						<g>
							
								<linearGradient id="SVGID_27_" gradientUnits="userSpaceOnUse" x1="548.0729" y1="614.9236" x2="548.0729" y2="423.6227" gradientTransform="matrix(1 0 -6.144260e-002 1.001 59.4771 -1.001)">
								<stop  offset="0" style="stop-color:#2E435A"/>
								<stop  offset="1" style="stop-color:#FF7F8C"/>
							</linearGradient>
							<path fill="url(#SVGID_27_)" d="M581.7,613c0-0.2-3.1-23.6-9-36.9c-3.7-8.3-7.8-17-12.7-24l1.4-1c5,7.2,9.1,15.9,12.8,24.3
								c6,13.5,9.1,37.1,9.1,37.4L581.7,613z"/>
						</g>
						<g>
							
								<linearGradient id="SVGID_28_" gradientUnits="userSpaceOnUse" x1="560.9987" y1="614.9236" x2="560.9987" y2="423.6227" gradientTransform="matrix(1 0 -6.144260e-002 1.001 59.4771 -1.001)">
								<stop  offset="0" style="stop-color:#2E435A"/>
								<stop  offset="1" style="stop-color:#FF7F8C"/>
							</linearGradient>
							<path fill="url(#SVGID_28_)" d="M591.1,609.7c0-0.2,0.6-23.6-4.8-36.5c-1-2.4-2.4-5-3.8-7.8c-1.9-3.6-4-7.8-5.9-12.4l1.6-0.7
								c1.9,4.5,4,8.6,5.8,12.3c1.4,2.8,2.8,5.5,3.8,7.9c5.6,13.2,5,36.2,5,37.2L591.1,609.7z"/>
						</g>
						<g>
							
								<linearGradient id="SVGID_29_" gradientUnits="userSpaceOnUse" x1="576.4733" y1="614.9236" x2="576.4733" y2="423.6227" gradientTransform="matrix(1 0 -6.144260e-002 1.001 59.4771 -1.001)">
								<stop  offset="0" style="stop-color:#2E435A"/>
								<stop  offset="1" style="stop-color:#FF7F8C"/>
							</linearGradient>
							<path fill="url(#SVGID_29_)" d="M583.1,610.9l-1.6-0.4c0.1-0.2,6.8-21.4,13.1-34.8c8.9-19,23.8-37.2,23.9-37.4l1.3,1
								c-0.1,0.2-14.8,18.2-23.7,37C589.8,589.5,583.1,610.6,583.1,610.9z"/>
						</g>
						<g>
							
								<linearGradient id="SVGID_30_" gradientUnits="userSpaceOnUse" x1="577.0087" y1="614.9236" x2="577.0087" y2="423.6227" gradientTransform="matrix(1 0 -6.144260e-002 1.001 59.4771 -1.001)">
								<stop  offset="0" style="stop-color:#2E435A"/>
								<stop  offset="1" style="stop-color:#FF7F8C"/>
							</linearGradient>
							<path fill="url(#SVGID_30_)" d="M596.4,598.4l-1.7-0.1c0.2-1.6,4.3-38.1,11.6-50.3l1.4,0.8
								C600.7,560.6,596.4,598,596.4,598.4z"/>
						</g>
						<g>
							
								<linearGradient id="SVGID_31_" gradientUnits="userSpaceOnUse" x1="582.7057" y1="614.9236" x2="582.7057" y2="423.6227" gradientTransform="matrix(1 0 -6.144260e-002 1.001 59.4771 -1.001)">
								<stop  offset="0" style="stop-color:#2E435A"/>
								<stop  offset="1" style="stop-color:#FF7F8C"/>
							</linearGradient>
							<path fill="url(#SVGID_31_)" d="M592.9,607.4l-1.7-0.2c3.8-24.4,14.7-68.9,31.3-80.9l0.9,1.4
								C607.3,539.3,596.6,583.3,592.9,607.4z"/>
						</g>
						<g>
							
								<linearGradient id="SVGID_32_" gradientUnits="userSpaceOnUse" x1="581.6083" y1="614.9236" x2="581.6083" y2="423.6227" gradientTransform="matrix(1 0 -6.144260e-002 1.001 59.4771 -1.001)">
								<stop  offset="0" style="stop-color:#2E435A"/>
								<stop  offset="1" style="stop-color:#FF7F8C"/>
							</linearGradient>
							<path fill="url(#SVGID_32_)" d="M597.6,602.8l-1.7,0c0.2-2.6,5.2-64.9,20.2-86.8l1.4,0.9
								C602.7,538.4,597.6,602.2,597.6,602.8z"/>
						</g>
						<g>
							
								<linearGradient id="SVGID_33_" gradientUnits="userSpaceOnUse" x1="572.3423" y1="614.9236" x2="572.3423" y2="423.6227" gradientTransform="matrix(1 0 -6.144260e-002 1.001 59.4771 -1.001)">
								<stop  offset="0" style="stop-color:#2E435A"/>
								<stop  offset="1" style="stop-color:#FF7F8C"/>
							</linearGradient>
							<path fill="url(#SVGID_33_)" d="M594.9,596.7c-0.2-2.6-4.6-63.6,7.6-88.4l1.5,0.7c-12,24.4-7.5,86.9-7.4,87.5L594.9,596.7z"
								/>
						</g>
						<g>
							
								<linearGradient id="SVGID_34_" gradientUnits="userSpaceOnUse" x1="562.05" y1="614.9236" x2="562.05" y2="423.6227" gradientTransform="matrix(1 0 -6.144260e-002 1.001 59.4771 -1.001)">
								<stop  offset="0" style="stop-color:#2E435A"/>
								<stop  offset="1" style="stop-color:#FF7F8C"/>
							</linearGradient>
							<path fill="url(#SVGID_34_)" d="M588.6,592.1c-0.8-8.4-7.3-82.1-1.9-87.7l1.2,1.1c-3.6,3.8-0.4,55,2.4,86.3L588.6,592.1z"/>
						</g>
						<g>
							
								<linearGradient id="SVGID_35_" gradientUnits="userSpaceOnUse" x1="550.3209" y1="614.9236" x2="550.3209" y2="423.6227" gradientTransform="matrix(1 0 -6.144260e-002 1.001 59.4771 -1.001)">
								<stop  offset="0" style="stop-color:#2E435A"/>
								<stop  offset="1" style="stop-color:#FF7F8C"/>
							</linearGradient>
							<path fill="url(#SVGID_35_)" d="M582.3,589c-0.7-4.9-1.5-11.4-2.4-18.9c-3-24.5-7.6-61.4-11.5-64.9l1.2-1.3
								c3.9,3.6,7.7,32,12,65.9c0.9,7.5,1.7,14,2.4,18.9L582.3,589z"/>
						</g>
						<g>
							
								<linearGradient id="SVGID_36_" gradientUnits="userSpaceOnUse" x1="536.9508" y1="614.9236" x2="536.9508" y2="423.6227" gradientTransform="matrix(1 0 -6.144260e-002 1.001 59.4771 -1.001)">
								<stop  offset="0" style="stop-color:#2E435A"/>
								<stop  offset="1" style="stop-color:#FF7F8C"/>
							</linearGradient>
							<path fill="url(#SVGID_36_)" d="M573.7,588.9c-1.7-39.2-15.2-73.3-23.7-79.6l1.1-1.4c9,6.6,22.6,40.6,24.3,80.8L573.7,588.9z
								"/>
						</g>
						<g>
							
								<linearGradient id="SVGID_37_" gradientUnits="userSpaceOnUse" x1="526.7458" y1="614.9236" x2="526.7458" y2="423.6227" gradientTransform="matrix(1 0 -6.144260e-002 1.001 59.4771 -1.001)">
								<stop  offset="0" style="stop-color:#2E435A"/>
								<stop  offset="1" style="stop-color:#FF7F8C"/>
							</linearGradient>
							<path fill="url(#SVGID_37_)" d="M567.9,589.5l-0.8-1.4c0,0,0,0,0,0c0.5-0.6,0.6-4.9-1.4-13.7c-4.3-18.6-15.9-48-30.3-53.1
								l0.6-1.6c18.9,6.6,32.3,51.7,33,64.8C569.2,587.4,568.8,588.9,567.9,589.5z"/>
						</g>
						<g>
							
								<linearGradient id="SVGID_38_" gradientUnits="userSpaceOnUse" x1="522.5753" y1="614.9236" x2="522.5753" y2="423.6227" gradientTransform="matrix(1 0 -6.144260e-002 1.001 59.4771 -1.001)">
								<stop  offset="0" style="stop-color:#2E435A"/>
								<stop  offset="1" style="stop-color:#FF7F8C"/>
							</linearGradient>
							<path fill="url(#SVGID_38_)" d="M560.1,590.7c0.2-3.6-4.5-45.9-26.9-55.8l0.8-1.6c23.2,10.2,28.1,53.6,27.8,57.3L560.1,590.7
								z"/>
						</g>
						<g>
							
								<linearGradient id="SVGID_39_" gradientUnits="userSpaceOnUse" x1="524.3881" y1="614.9236" x2="524.3881" y2="423.6227" gradientTransform="matrix(1 0 -6.144260e-002 1.001 59.4771 -1.001)">
								<stop  offset="0" style="stop-color:#2E435A"/>
								<stop  offset="1" style="stop-color:#FF7F8C"/>
							</linearGradient>
							<path fill="url(#SVGID_39_)" d="M554.1,593.1c-0.9-10.6-7.1-42.7-12-49.2l1.4-1.1c5.5,7.1,11.6,40.5,12.4,50L554.1,593.1z"/>
						</g>
					</g>
					<path fill="#00364F" d="M625.8,527.8c0.2-14.7-20.9-26.7-47.2-26.7c-26.2,0-47.7,11.9-47.9,26.7c-0.2,14.6,20.6,26.5,46.6,26.7
						h0.6C604.1,554.5,625.6,542.5,625.8,527.8z M578,551.1c-24.3,0-43.8-10.4-43.7-23.3c0.1-12.8,19.9-23.3,44.2-23.3
						c24.3,0,43.8,10.4,43.7,23.3C622.1,540.6,602.3,551.1,578,551.1z"/>
					
						<linearGradient id="SVGID_40_" gradientUnits="userSpaceOnUse" x1="551.2476" y1="577.2834" x2="551.2476" y2="486.7992" gradientTransform="matrix(1 0 -6.144260e-002 1.001 59.4771 -1.001)">
						<stop  offset="5.102040e-002" style="stop-color:#00364F"/>
						<stop  offset="0.2219" style="stop-color:#2E435A"/>
						<stop  offset="1" style="stop-color:#FF7F8C"/>
					</linearGradient>
					<path fill="url(#SVGID_40_)" d="M625.9,525.9c0.2-14.7-20.9-26.7-47.2-26.7c-26.2,0-47.7,11.9-47.9,26.7
						c-0.2,14.6,20.6,26.5,46.6,26.7h0.6C604.3,552.6,625.7,540.7,625.9,525.9z M578.1,549.2c-24.3,0-43.8-10.4-43.7-23.3
						c0.1-12.8,19.9-23.3,44.2-23.3c24.3,0,43.8,10.4,43.7,23.3C622.2,538.8,602.4,549.2,578.1,549.2z"/>
				</g>
			</g>
			<linearGradient id="SVGID_41_" gradientUnits="userSpaceOnUse" x1="-482.8649" y1="1856.0511" x2="1667.135" y2="1040.0511">
				<stop  offset="5.102040e-002" style="stop-color:#00364F"/>
				<stop  offset="1" style="stop-color:#A06475"/>
			</linearGradient>
			<path clip-path="url(#SVGID_2_)" fill="url(#SVGID_41_)" d="M1144.6,696.5c86.4,65.8,147.6,137.8,182,214.3
				c16.6,36.8,26.7,74.4,30.1,111.9c3.3,36.1,0.4,72.1-8.6,107.1c-20.2,78.7-70.3,149.9-144.9,205.9c-56.7,42.7-125,74.4-200.3,93.6
				c-6.7,2.2-13.7,4.1-21,5.7c-8.2,1.7-16.7,3.2-25.3,4.3c-10,1.8-20.1,3.4-30.2,4.7c-71.8,9.6-144.1,14.5-215.8,14.5
				c-22.1,0-44.2-0.5-66.2-1.4c-102.8-4.3-201.4-18.8-293-43.1c-101.3-26.8-194.1-65.7-275.8-115.4
				c-51.2-31.2-98.4-66.9-141.1-106.8c12.2,168.4,26.5,379,26.5,447.2c0,2.7,1.4,5.4,4.4,8.2c16.1,14.9,79,33.7,287.4,38.5
				c134.9,3.1,315.1,0.1,535.6-8.8c351.6-14.3,695.9-39.5,741.5-42.9V906.5c-93.5-90.9-232.9-225.3-250.7-239.6L1144.6,696.5z"/>
			<g clip-path="url(#SVGID_2_)">
				<path fill="none" d="M640.3,1317.1l394.8-118.3l-387.4-393l-297.8,65.5c17,25.9,80.6,123.3,143.7,220
					C604,1260.6,632.7,1305,640.3,1317.1z"/>
				<path fill="none" d="M1043.7,1207.7l-397.7,119.1c4.6,7.7,10.4,15.3,17.3,22.6c30.5,32.4,81.4,57.9,143.1,71.6
					c58.5,13,121.6,14.1,173.2,3.1c52.5-11.2,90-41.3,102.9-82.6C1095.9,1298.9,1081.4,1249.1,1043.7,1207.7z"/>
				<path fill="none" d="M1047.1,1195.2l2.3,2.4l6.3,6.4l-0.4,0.1c18.3,21,31,43.6,37.8,67.3c7.2,25.1,7.2,50.5,0,73.4
					c-7.1,22.8-21,42.5-40.3,57.9c146.1-51.2,252.9-151.9,284.7-275.8c38.1-148-35.5-299.7-207.1-427.4L660.6,803.3L1047.1,1195.2
					L1047.1,1195.2z"/>
				<path fill="none" d="M858.5,1440.5c-18.2-1.8-36.5-4.7-54.3-8.6c-63.9-14.2-116.7-40.8-148.8-74.8c-8.9-9.5-16.2-19.4-21.6-29.6
					c-0.3-0.4-0.6-0.9-0.9-1.5c-6.7-11.6-193.7-297.9-294.3-451.8l-557.6,123c11.2,20.3,26.8,37.5,43.2,55.5
					c10,11,20.4,22.4,30.3,35.2c235,301.7,610.5,358.8,860.8,358.8C769.9,1446.7,818.5,1444,858.5,1440.5z"/>
				<path fill="none" d="M1144.6,696.5c86.4,65.8,147.6,137.8,182,214.3c16.6,36.8,26.7,74.4,30.1,111.9
					c3.3,36.1,0.4,72.1-8.6,107.1c-20.2,78.7-70.3,149.9-144.9,205.9c-56.7,42.7-125,74.4-200.3,93.6c-6.7,2.2-13.7,4.1-21,5.7
					c-8.2,1.7-16.7,3.2-25.3,4.3c-10,1.8-20.1,3.4-30.2,4.7c-71.8,9.6-144.1,14.5-215.8,14.5c-22.1,0-44.2-0.5-66.2-1.4
					c-102.8-4.3-201.4-18.8-293-43.1c-101.3-26.8-194.1-65.7-275.8-115.4c-51.2-31.2-98.4-66.9-141.1-106.8
					c12.2,168.4,26.5,379,26.5,447.2c0,2.7,1.4,5.4,4.4,8.2c16.1,14.9,79,33.7,287.4,38.5c134.9,3.1,315.1,0.1,535.6-8.8
					c351.6-14.3,695.9-39.5,741.5-42.9V906.5c-93.5-90.9-232.9-225.3-250.7-239.6L1144.6,696.5z"/>
				<path fill="#FFFFFF" d="M1407.1,787.5l4.3-11.1C1289.3,658.8,1285,656.9,1282.9,656l-1.7-0.7L1133,687.8l-2.6,0.6L651.3,793.8
					l-126.7,27.9l-20,15.7l143.2-31.5l387.4,393l-394.8,118.3c-7.6-12.1-36.2-56.5-146.7-225.8c-39.4-60.3-79-121-107.3-164.3
					c-3,2.2-5.9,4.4-8.8,6.6C480.9,1091.9,627,1315.8,632.9,1326c0.2,0.6,0.5,1.1,0.9,1.5c5.4,10.2,12.7,20.1,21.6,29.6
					c14.2,15.1,32.5,28.7,54.1,40.4c8.2,0.1,16.5,0.2,24.8,0.1c-29.1-13.1-53.3-29.4-70.9-48.1c-6.9-7.3-12.7-14.9-17.3-22.6
					l397.7-119.1c30.3,33.3,45.7,72.1,43.5,108.3c3.8-1.9,7.5-3.9,11.2-5.9c0.1-12.7-1.7-25.8-5.4-38.7
					c-6.8-23.7-19.5-46.3-37.8-67.3l0.4-0.1l-6.3-6.4l-2.3-2.4l-0.1,0l-386.4-392l469.9-103.6c110.8,82.5,180.7,174.9,206.1,269.9
					l6.2-16.1c-4.4-14.3-9.8-28.5-16.2-42.6c-34.4-76.5-95.6-148.5-182-214.3l134.8-29.7C1290.2,675.5,1344.8,727.5,1407.1,787.5z"
					/>
				<radialGradient id="SVGID_42_" cx="768.5556" cy="1051.0729" r="495.5703" gradientUnits="userSpaceOnUse">
					<stop  offset="0" style="stop-color:#FFFFFF"/>
					<stop  offset="0.4975" style="stop-color:#FFCFB9"/>
					<stop  offset="1" style="stop-color:#FF7F8C"/>
				</radialGradient>
				<path fill="url(#SVGID_42_)" d="M1541.1,901.8v742.3l-5.1,0.4c-3.7,0.3-371.1,28-747,43.3c-164.3,6.7-306.3,10-423.9,10
					c-40.4,0-77.9-0.4-112.5-1.2c-172.5-4-268.9-17.5-294.7-41.4c-5.3-4.9-7.9-10.3-7.9-16.2c0-69.5-14.9-288.4-27.3-458.4
					c-27.7-26.9-53.4-55.5-77.1-85.9c-9.6-12.4-19.9-23.6-29.7-34.5c-18.6-20.4-36.1-39.8-48.1-64.3l-3.1-6.3l6.8-1.5l139.1-30.7
					l241.9-53.9L332,864l192.6-42.4l-20,15.7l-154.6,34c6.4,9.7,19.3,29.6,36.4,55.6c-3,2.2-5.9,4.4-8.8,6.6
					c-13.9-21.2-26.9-41.2-38.8-59.4l-557.6,123c11.2,20.3,26.8,37.5,43.2,55.5c10,11,20.4,22.4,30.3,35.1
					c234.9,301.7,610.5,358.8,860.8,358.8c54.7,0,103.3-2.7,143.3-6.2c-18.2-1.8-36.5-4.7-54.3-8.6c-35.6-7.9-67.7-19.6-94.7-34.4
					c8.2,0.1,16.5,0.2,24.8,0.1c21.6,9.7,46,17.7,72.3,23.5c58.5,13,121.6,14.1,173.2,3.1c52.5-11.2,90-41.3,102.9-82.6
					c2.6-8.3,4.1-16.9,4.7-25.6c3.8-1.9,7.5-3.9,11.2-5.9c-0.1,11.9-1.9,23.6-5.4,34.7c-7.1,22.8-21,42.5-40.3,58
					c146.1-51.2,252.9-151.9,284.7-275.8c13.5-52.5,13-105.4-1-157.5l6.2-16.1c7.2,23,11.9,46.2,14,69.3
					c3.3,36.1,0.4,72.1-8.6,107.1c-20.2,78.7-70.3,149.9-144.9,205.9c-56.7,42.7-125,74.4-200.3,93.6c-6.7,2.2-13.7,4.1-21,5.7
					c-8.2,1.8-16.7,3.2-25.3,4.3c-10,1.8-20.1,3.4-30.2,4.8c-71.8,9.6-144.1,14.5-215.8,14.5c-22.1,0-44.2-0.5-66.2-1.4
					c-102.8-4.3-201.4-18.8-293-43.1c-101.3-26.8-194.1-65.7-275.8-115.4c-51.2-31.2-98.4-66.9-141.1-106.8
					c12.2,168.4,26.4,379,26.4,447.2c0,2.8,1.4,5.4,4.4,8.2c16.1,14.9,79,33.7,287.4,38.5c134.9,3.1,315.1,0.1,535.6-8.8
					c351.6-14.3,695.9-39.5,741.5-42.9V906.5c-37.3-36.2-81.8-79.4-123-119l4.3-11.1c1.3,1.2,2.6,2.5,3.9,3.8
					c61.9,59.6,123.5,119.5,124.1,120.1L1541.1,901.8z"/>
			</g>
			<path clip-path="url(#SVGID_2_)" fill="#00364F" d="M715.2,1446.7c54.7,0,103.3-2.7,143.3-6.2c-18.2-1.8-36.5-4.7-54.3-8.6
				c-63.9-14.2-116.7-40.8-148.8-74.8c-8.9-9.5-16.2-19.4-21.6-29.6c-0.3-0.4-0.6-0.9-0.9-1.5c-6.7-11.6-193.7-297.9-294.3-451.8
				l-557.6,123c11.2,20.3,26.8,37.5,43.2,55.5c10,11,20.4,22.4,30.3,35.2C89.4,1389.6,464.9,1446.7,715.2,1446.7z"/>
			<path clip-path="url(#SVGID_2_)" fill="#00364F" d="M1337.6,1127c38.1-148-35.5-299.7-207.1-427.4L660.6,803.3l386.4,392l0.1,0
				l2.3,2.4l6.3,6.4l-0.4,0.1c18.3,21,31,43.6,37.8,67.3c7.2,25.1,7.2,50.5,0,73.4c-7.1,22.8-21,42.5-40.3,57.9
				C1199,1351.7,1305.7,1251,1337.6,1127z"/>
			<linearGradient id="SVGID_43_" gradientUnits="userSpaceOnUse" x1="82.276" y1="1158.9138" x2="1016.276" y2="996.9138">
				<stop  offset="5.102040e-002" style="stop-color:#00364F"/>
				<stop  offset="0.2219" style="stop-color:#2E435A"/>
				<stop  offset="1" style="stop-color:#FF7F8C"/>
			</linearGradient>
			<path clip-path="url(#SVGID_2_)" fill="url(#SVGID_43_)" d="M493.6,1091.3C604,1260.6,632.7,1305,640.3,1317.1l394.8-118.3
				l-387.4-393l-297.8,65.5C366.8,897.3,430.5,994.7,493.6,1091.3z"/>
			<path clip-path="url(#SVGID_2_)" fill="#00364F" d="M1082.6,1341.6c13.3-42.7-1.2-92.5-38.9-133.9l-397.7,119.1
				c4.6,7.7,10.4,15.3,17.3,22.6c30.5,32.4,81.4,57.9,143.1,71.6c58.5,13,121.6,14.1,173.2,3.1
				C1032.2,1413,1069.7,1382.9,1082.6,1341.6z"/>
			<radialGradient id="SVGID_44_" cx="1947.6147" cy="174.9595" r="1919.8754" gradientUnits="userSpaceOnUse">
				<stop  offset="0" style="stop-color:#FFFFFF"/>
				<stop  offset="0.4975" style="stop-color:#FFCFB9"/>
				<stop  offset="1" style="stop-color:#FF7F8C;stop-opacity:0"/>
			</radialGradient>
			<path opacity="0.32" clip-path="url(#SVGID_2_)" fill="url(#SVGID_44_)" d="M1703.7,21l-292.4,755.4l-4.3,11.1l-64.2,165.9
				l-6.2,16.1l-59.4,153.6c-2.8,9.2-6.4,18.4-10.6,27.4c-28.2,60.3-87,116.3-168.1,159.6c-3.7,2-7.4,3.9-11.2,5.9
				c-57.7,29.3-126,52.5-202,66.6c-50.9,9.5-101.6,14.3-151,14.9c-8.3,0.1-16.6,0.1-24.8-0.1c-207.7-3.6-386.1-82.7-434.2-205.8
				c-35.3-90.3,7.2-184.5,102.2-258.1c2.9-2.2,5.8-4.5,8.8-6.6c9.1-6.7,18.7-13.3,28.7-19.6l89.6-70.1l20-15.7L1555.7,15L1703.7,21z
				"/>
		</g>
		<path fill="#00364F" d="M673.4,1138.1c2.3,12-16.6,25.1-42.2,29.2c-25.6,4.1-48.2-2.2-50.5-14.2c-2.3-12,16.6-25.1,42.2-29.2
			C648.5,1119.7,671.1,1126.1,673.4,1138.1z"/>
		<g>
			
				<linearGradient id="SVGID_45_" gradientUnits="userSpaceOnUse" x1="6532.189" y1="1119.7505" x2="6495.4907" y2="1095.3933" gradientTransform="matrix(-1 0 0 1 7166.542 0)">
				<stop  offset="5.102040e-002" style="stop-color:#00364F"/>
				<stop  offset="1" style="stop-color:#FF7F8C"/>
			</linearGradient>
			<path fill="url(#SVGID_45_)" d="M656.6,1108.1c1.8,1.9,3.5,3.8,5,5.6c5-4.4,9.9-8.9,13.1-12.5c-4-4.8-9.3-8.4-15.5-10.1
				c2.7,4.7,3.4,8.1,1.1,12.3C659.4,1105.2,658.1,1106.7,656.6,1108.1z"/>
			
				<linearGradient id="SVGID_46_" gradientUnits="userSpaceOnUse" x1="6537.6157" y1="1111.5737" x2="6500.9175" y2="1087.2164" gradientTransform="matrix(-1 0 0 1 7166.542 0)">
				<stop  offset="5.102040e-002" style="stop-color:#00364F"/>
				<stop  offset="1" style="stop-color:#FF7F8C"/>
			</linearGradient>
			<path fill="url(#SVGID_46_)" d="M634.7,1094.4c6.8,0.4,14.5,6.2,21,12.8c1.4-1.3,2.6-2.8,3.5-4.4c2.1-3.9,1.3-7.1-1.8-12.1
				c-2.2-0.5-4.4-0.7-6.7-0.7C644.8,1090,639.3,1091.6,634.7,1094.4z"/>
			
				<linearGradient id="SVGID_47_" gradientUnits="userSpaceOnUse" x1="6537.5513" y1="1111.671" x2="6500.853" y2="1087.3137" gradientTransform="matrix(-1 0 0 1 7166.542 0)">
				<stop  offset="5.102040e-002" style="stop-color:#00364F"/>
				<stop  offset="1" style="stop-color:#FF7F8C"/>
			</linearGradient>
			<path fill="url(#SVGID_47_)" d="M619.9,1116.5c5.7-3.3,13.7-3.6,19.8-3.8c2.4-0.1,4.5-0.2,6-0.4c3.3-0.6,6.5-2.1,9.1-4.1
				c-0.7-0.7-1.4-1.4-2.2-2.1c-5.6-5.3-13.3-11-19.9-10.1C625.8,1100.6,621.1,1108,619.9,1116.5z"/>
			
				<linearGradient id="SVGID_48_" gradientUnits="userSpaceOnUse" x1="6531.2676" y1="1121.1382" x2="6494.5693" y2="1096.781" gradientTransform="matrix(-1 0 0 1 7166.542 0)">
				<stop  offset="5.102040e-002" style="stop-color:#00364F"/>
				<stop  offset="1" style="stop-color:#FF7F8C"/>
			</linearGradient>
			<path fill="url(#SVGID_48_)" d="M619.5,1121.1c0,7.1,2.4,13.7,6.4,18.9c6-3.1,14.1-8.7,19.8-13.1c3-2.3,8.9-7.1,14.9-12.4
				c-1.5-1.8-3.2-3.8-5-5.6c-2.8,2.3-6.2,3.9-9.8,4.5c-1.6,0.3-3.7,0.3-6.2,0.4c-6.3,0.2-14.5,0.5-20,4.2
				C619.6,1119.1,619.5,1120.1,619.5,1121.1z"/>
			
				<linearGradient id="SVGID_49_" gradientUnits="userSpaceOnUse" x1="6519.4888" y1="1138.885" x2="6482.7905" y2="1114.5277" gradientTransform="matrix(-1 0 0 1 7166.542 0)">
				<stop  offset="5.102040e-002" style="stop-color:#00364F"/>
				<stop  offset="1" style="stop-color:#FF7F8C"/>
			</linearGradient>
			<path fill="url(#SVGID_49_)" d="M626.8,1141.1c5.1,6.1,12.4,10.2,20.8,11c4.3-2.2,7.6-7.4,10.1-15.7c1.7-5.9,4.7-10.9,8.4-14.5
				c-1.2-1.8-2.8-3.9-4.6-6.2c-6,5.2-11.9,10.1-14.9,12.4C640.8,1132.4,632.9,1138,626.8,1141.1z"/>
			
				<linearGradient id="SVGID_50_" gradientUnits="userSpaceOnUse" x1="6515.0464" y1="1145.5782" x2="6478.3481" y2="1121.2209" gradientTransform="matrix(-1 0 0 1 7166.542 0)">
				<stop  offset="5.102040e-002" style="stop-color:#00364F"/>
				<stop  offset="1" style="stop-color:#FF7F8C"/>
			</linearGradient>
			<path fill="url(#SVGID_50_)" d="M649.9,1152.3c0.3,0,0.5,0,0.8,0c8.1,0,15.5-3.1,21.1-8.2c2.7-6-0.5-13.3-3.8-19.1
				c-0.3-0.5-0.7-1.2-1.1-1.9c-3.5,3.4-6.3,8.2-7.9,13.8c-1.6,5.4-3.5,9.4-5.8,12.3C652.1,1150.4,651,1151.4,649.9,1152.3z"/>
			
				<linearGradient id="SVGID_51_" gradientUnits="userSpaceOnUse" x1="6515.4243" y1="1145.009" x2="6478.7261" y2="1120.6517" gradientTransform="matrix(-1 0 0 1 7166.542 0)">
				<stop  offset="5.102040e-002" style="stop-color:#00364F"/>
				<stop  offset="1" style="stop-color:#FF7F8C"/>
			</linearGradient>
			<path fill="url(#SVGID_51_)" d="M669.1,1124.3c2.8,5,5.9,11.7,4.7,17.7c5-5.5,8-12.8,8-20.9c0-0.1,0-0.2,0-0.2
				c-3.2-2.7-6.3-3.6-10.8-1c-1.1,0.6-2.2,1.4-3.2,2.3C668.3,1122.9,668.8,1123.7,669.1,1124.3z"/>
			
				<linearGradient id="SVGID_52_" gradientUnits="userSpaceOnUse" x1="6522.8018" y1="1133.8938" x2="6486.1035" y2="1109.5365" gradientTransform="matrix(-1 0 0 1 7166.542 0)">
				<stop  offset="5.102040e-002" style="stop-color:#00364F"/>
				<stop  offset="1" style="stop-color:#FF7F8C"/>
			</linearGradient>
			<path fill="url(#SVGID_52_)" d="M662.4,1114.8c1.8,2.3,3.4,4.4,4.6,6.2c1-0.9,2.1-1.7,3.3-2.3c4.7-2.7,8.1-2,11.4,0.4
				c-0.4-6.3-2.7-12-6.2-16.7C672.3,1105.9,667.4,1110.5,662.4,1114.8z"/>
			<path fill="#00364F" d="M632.5,1095.8c6.6-0.9,14.3,4.9,19.9,10.1c0.7,0.7,1.5,1.4,2.2,2.1c0.3,0.3,0.6,0.6,0.9,1
				c1.8,1.9,3.5,3.8,5,5.6c0.3,0.3,0.6,0.7,0.8,1c1.9,2.3,3.4,4.5,4.6,6.2c0.3,0.4,0.5,0.8,0.7,1.1c0.5,0.7,0.8,1.3,1.1,1.9
				c3.3,5.9,6.5,13.1,3.8,19.1c0.7-0.7,1.4-1.3,2-2.1c1.2-6.1-1.9-12.7-4.7-17.7c-0.3-0.6-0.8-1.3-1.3-2.1c-0.2-0.4-0.5-0.7-0.7-1.1
				c-1.2-1.8-2.8-3.9-4.6-6.2c-0.3-0.3-0.6-0.7-0.8-1c-1.5-1.8-3.2-3.8-5-5.6c-0.3-0.3-0.6-0.6-0.9-1c-6.4-6.6-14.1-12.4-21-12.8h0
				C633.9,1094.8,633.2,1095.3,632.5,1095.8z"/>
			<path fill="#00364F" d="M619.7,1118.2c5.5-3.7,13.7-4,20-4.2c2.5-0.1,4.6-0.2,6.2-0.4c3.5-0.6,7-2.2,9.8-4.5
				c0.3-0.3,0.7-0.6,1-0.9c1.5-1.4,2.8-3,3.7-4.7c2.2-4.1,1.6-7.5-1.1-12.3h0c-0.6-0.2-1.2-0.3-1.8-0.5c3,5,3.9,8.1,1.8,12.1
				c-0.9,1.6-2.1,3.1-3.5,4.4c-0.3,0.3-0.7,0.6-1,0.9c-2.6,2.1-5.8,3.6-9.1,4.1c-1.5,0.3-3.6,0.3-6,0.4c-6.1,0.2-14,0.5-19.8,3.8
				C619.8,1117,619.7,1117.6,619.7,1118.2z"/>
			<path fill="#00364F" d="M625.9,1140.1c0.3,0.4,0.6,0.7,0.9,1.1c6.1-3.1,14.1-8.7,19.7-13.1c3-2.3,8.9-7.1,14.9-12.4
				c0.3-0.3,0.7-0.6,1-0.9c4.9-4.4,9.8-8.9,13.1-12.4c-0.3-0.4-0.5-0.7-0.8-1.1c-3.2,3.5-8.1,8.1-13.1,12.5c-0.3,0.3-0.7,0.6-1,0.9
				c-6,5.2-11.9,10.1-14.9,12.4C640,1131.4,631.9,1137,625.9,1140.1z"/>
			<path fill="#00364F" d="M647.6,1152.1c0.8,0.1,1.5,0.1,2.3,0.1c1.2-0.8,2.2-1.9,3.3-3.1c2.3-2.9,4.2-6.9,5.8-12.3
				c1.6-5.6,4.4-10.3,7.9-13.8c0.3-0.3,0.7-0.6,1-0.9c1-0.9,2.1-1.6,3.2-2.3c4.5-2.6,7.6-1.7,10.8,1c0-0.6,0-1.2-0.1-1.8
				c-3.2-2.5-6.7-3.1-11.4-0.4c-1.1,0.7-2.2,1.4-3.3,2.3c-0.3,0.3-0.7,0.6-1,0.9c-3.8,3.6-6.7,8.6-8.4,14.5
				C655.2,1144.7,651.9,1150,647.6,1152.1z"/>
		</g>
	</g>
</g>
</svg>
